<svg width="70" height="70" viewBox="0 0 70 70" fill="none" xmlns="http://www.w3.org/2000/svg">
<path fill-rule="evenodd" clip-rule="evenodd" d="M27.3453 24.5447L24.3061 27.299C26.4592 29.9813 29.374 32.2012 32.9494 32.9122V37.0729H37.0509V33.1953C40.956 32.9283 44.9176 29.9827 45.582 26.0679C46.5093 20.7528 41.8484 17.5712 37.0509 16.0966V8.04111C39.1232 8.25576 41.4574 9.91621 43.1428 11.3608L45.6873 8.14379C43.3295 5.95479 39.4961 3.96922 37.0508 3.90523V0H32.9492V4.13588C29.7258 4.82631 27.0752 7.38732 26.6444 10.5287C26.2523 15.0376 28.3589 17.2754 32.9492 18.8699V28.6821C29.3537 27.7147 27.3453 24.5447 27.3453 24.5447ZM30.7013 11.1325C30.8798 9.93248 31.7063 8.95275 32.9492 8.43158V14.4205C30.6511 13.6691 30.533 12.2622 30.7013 11.1325ZM37.0508 29.0698C39.6106 28.7001 41.5442 27.0044 41.5442 25.3468C41.5442 22.0012 37.5377 20.6514 37.0876 20.4998C37.0692 20.4936 37.0568 20.4894 37.0508 20.4872V29.0698Z" fill="white"/>
<path fill-rule="evenodd" clip-rule="evenodd" d="M62.9394 56.4697V48.9629L63.8468 49.5073L65.9572 45.9902L51.4746 37.3008L36.992 45.9904L39.1024 49.5074L40.0098 48.963V56.4698H29.9904V48.963L30.8978 49.5074L33.0081 45.9904L18.5254 37.3008L4.04277 45.9904L6.15316 49.5074L7.06057 48.963V56.4698H0V60.5714H70V56.4698H62.9394V56.4697ZM20.5762 56.4697V51.4599H16.4746V56.4697H11.1621V46.502L18.5254 42.0839L25.8887 46.502V56.4697H20.5762ZM53.5254 51.4599V56.4697H58.8379V46.502L51.4746 42.0839L44.1113 46.502V56.4697H49.4238V51.4599H53.5254Z" fill="white"/>
<path d="M0 65.8838H70V69.9854H0V65.8838Z" fill="white"/>
</svg>
